<svg width="192" height="192" viewBox="0 0 192 192" fill="none" xmlns="http://www.w3.org/2000/svg">
<rect width="192" height="192" fill="black"/>
<circle cx="59.6394" cy="31.5056" r="17.5056" fill="#EFEFEF"/>
<path d="M83.374 51.7753H85.5317C91.49 51.7753 96.3201 56.6054 96.3201 62.5637V78.7464V99.2444C96.3201 102.819 93.4221 105.717 89.8471 105.717V105.717C86.2721 105.717 83.374 102.819 83.374 99.2444V51.7753Z" fill="#EFEFEF"/>
<path fill-rule="evenodd" clip-rule="evenodd" d="M38.0625 62.5637C38.0625 56.6054 42.8926 51.7753 48.8509 51.7753H70.4278C76.3861 51.7753 81.2163 56.6054 81.2163 62.5637V83.6012V114.307L81.2163 114.348V140.78V169.909C81.2163 174.377 77.5937 178 73.125 178C68.6563 178 65.0337 174.377 65.0337 169.909V120.282C65.0337 117.601 62.8601 115.427 60.1789 115.427V115.427C57.4977 115.427 55.3241 117.601 55.3241 120.282V140.78V169.369C55.3241 174.136 51.46 178 46.6934 178C41.9268 178 38.0626 174.136 38.0626 169.369V115.427C38.0626 115.427 38.0626 115.427 38.0626 115.427V115.427C38.0625 115.427 38.0625 115.427 38.0625 115.427V62.5637Z" fill="#EFEFEF"/>
<path d="M35.9043 51.7753H33.7466C27.7883 51.7753 22.9582 56.6054 22.9582 62.5637V78.7464V99.2444C22.9582 102.819 25.8563 105.717 29.4312 105.717V105.717C33.0062 105.717 35.9043 102.819 35.9043 99.2444V51.7753Z" fill="#EFEFEF"/>
<path d="M35.9043 64.7214L35.9043 62.5637C35.9043 56.6055 40.7344 51.7753 46.6927 51.7753L62.8754 51.7753L83.3734 51.7753C86.9484 51.7753 89.8465 54.6734 89.8465 58.2484V58.2484C89.8465 61.8233 86.9484 64.7214 83.3734 64.7214L35.9043 64.7214Z" fill="#EFEFEF"/>
<path d="M83.374 64.7214L83.374 62.5637C83.374 56.6055 78.5439 51.7753 72.5856 51.7753L56.4029 51.7753L35.9049 51.7753C32.3299 51.7753 29.4318 54.6734 29.4318 58.2484V58.2484C29.4318 61.8233 32.3299 64.7214 35.9049 64.7214L83.374 64.7214Z" fill="#EFEFEF"/>
<path fill-rule="evenodd" clip-rule="evenodd" d="M35.2239 103.371C35.9872 103.371 36.6059 103.99 36.6059 104.753V120.416C36.6059 121.179 35.9872 121.798 35.2239 121.798V121.798C34.4607 121.798 33.8419 121.179 33.8419 120.416L33.8419 107.978C33.8419 106.96 33.0169 106.135 31.9992 106.135H24.6284C23.6107 106.135 22.7857 106.96 22.7857 107.978L22.7857 120.416C22.7857 121.179 22.167 121.798 21.4037 121.798V121.798C20.6404 121.798 20.0217 121.179 20.0217 120.416L20.0217 106.135C20.0217 106.135 20.0216 106.135 20.0216 106.135V106.135C20.0215 106.135 20.0215 106.135 20.0215 106.135V103.371C20.0215 103.371 20.0215 103.371 20.0216 103.371H20.0216C20.0217 103.371 20.0217 103.371 20.0217 103.371V103.371C20.0217 103.371 20.0217 103.371 20.0217 103.371L22.7857 103.371C22.7857 103.371 22.7857 103.371 22.7857 103.371V103.371C22.7857 103.371 22.7857 103.371 22.7858 103.371H33.8419C33.8419 103.371 33.8419 103.371 33.8419 103.371V103.371C33.8419 103.371 33.8419 103.371 33.8419 103.371L35.2239 103.371Z" fill="#EFEFEF"/>
<rect x="11" y="111" width="36" height="30" fill="#EFEFEF"/>
<path d="M116.78 42.8V44.64H112.26V56H110.12V44.64H105.6V42.8H116.78ZM118.73 56V41.5H120.87V47.6C121.204 46.9733 121.65 46.52 122.21 46.24C122.784 45.9467 123.417 45.8 124.11 45.8C124.817 45.8 125.45 45.94 126.01 46.22C126.584 46.4867 127.037 46.8933 127.37 47.44C127.704 47.9867 127.87 48.68 127.87 49.52V56H125.73V50.2C125.73 49.2133 125.524 48.5267 125.11 48.14C124.71 47.7533 124.204 47.56 123.59 47.56C123.164 47.56 122.737 47.6667 122.31 47.88C121.897 48.08 121.55 48.4133 121.27 48.88C121.004 49.3333 120.87 49.9467 120.87 50.72V56H118.73ZM135.513 56.2C134.513 56.2 133.633 55.9933 132.873 55.58C132.113 55.1667 131.52 54.5733 131.093 53.8C130.68 53.0133 130.473 52.08 130.473 51C130.473 49.92 130.68 48.9933 131.093 48.22C131.52 47.4333 132.106 46.8333 132.853 46.42C133.6 46.0067 134.446 45.8 135.393 45.8C136.366 45.8 137.193 46 137.873 46.4C138.553 46.8 139.073 47.3467 139.433 48.04C139.793 48.7333 139.973 49.52 139.973 50.4C139.973 50.64 139.966 50.8667 139.953 51.08C139.94 51.2933 139.92 51.48 139.893 51.64H131.853V50H138.953L137.893 50.32C137.893 49.4133 137.666 48.72 137.213 48.24C136.76 47.7467 136.14 47.5 135.353 47.5C134.78 47.5 134.28 47.6333 133.853 47.9C133.426 48.1667 133.1 48.5667 132.873 49.1C132.646 49.62 132.533 50.26 132.533 51.02C132.533 51.7667 132.653 52.4 132.893 52.92C133.133 53.44 133.473 53.8333 133.913 54.1C134.353 54.3667 134.873 54.5 135.473 54.5C136.14 54.5 136.68 54.3733 137.093 54.12C137.506 53.8667 137.833 53.5133 138.073 53.06L139.773 53.86C139.533 54.34 139.206 54.76 138.793 55.12C138.393 55.4667 137.913 55.7333 137.353 55.92C136.793 56.1067 136.18 56.2 135.513 56.2ZM112.44 73.6C113.72 73.6 114.827 73.8733 115.76 74.42C116.693 74.9667 117.413 75.7467 117.92 76.76C118.427 77.7733 118.68 78.9867 118.68 80.4C118.68 81.8133 118.427 83.0267 117.92 84.04C117.413 85.0533 116.693 85.8333 115.76 86.38C114.827 86.9267 113.72 87.2 112.44 87.2C111.173 87.2 110.073 86.9267 109.14 86.38C108.207 85.8333 107.487 85.0533 106.98 84.04C106.473 83.0267 106.22 81.8133 106.22 80.4C106.22 78.9867 106.473 77.7733 106.98 76.76C107.487 75.7467 108.207 74.9667 109.14 74.42C110.073 73.8733 111.173 73.6 112.44 73.6ZM112.44 75.46C111.613 75.46 110.9 75.6533 110.3 76.04C109.713 76.4267 109.26 76.9867 108.94 77.72C108.62 78.4533 108.46 79.3467 108.46 80.4C108.46 81.44 108.62 82.3333 108.94 83.08C109.26 83.8133 109.713 84.3733 110.3 84.76C110.9 85.1467 111.613 85.34 112.44 85.34C113.28 85.34 113.993 85.1467 114.58 84.76C115.18 84.3733 115.64 83.8133 115.96 83.08C116.28 82.3333 116.44 81.44 116.44 80.4C116.44 79.3467 116.28 78.4533 115.96 77.72C115.64 76.9867 115.18 76.4267 114.58 76.04C113.993 75.6533 113.28 75.46 112.44 75.46ZM125.802 72.36C126.216 72.36 126.589 72.4067 126.922 72.5C127.269 72.58 127.529 72.6933 127.702 72.84L127.302 74.38C127.156 74.2867 126.989 74.22 126.802 74.18C126.616 74.1267 126.402 74.1 126.162 74.1C125.616 74.1 125.182 74.2267 124.862 74.48C124.556 74.7333 124.402 75.1467 124.402 75.72V77.18L124.462 77.72V87H122.322V75.56C122.322 75.0533 122.396 74.6 122.542 74.2C122.702 73.8 122.936 73.4667 123.242 73.2C123.549 72.92 123.916 72.7133 124.342 72.58C124.782 72.4333 125.269 72.36 125.802 72.36ZM127.642 77V78.68H120.442V77H127.642ZM133.722 72.36C134.136 72.36 134.509 72.4067 134.842 72.5C135.189 72.58 135.449 72.6933 135.622 72.84L135.222 74.38C135.076 74.2867 134.909 74.22 134.722 74.18C134.536 74.1267 134.322 74.1 134.082 74.1C133.536 74.1 133.102 74.2267 132.782 74.48C132.476 74.7333 132.322 75.1467 132.322 75.72V77.18L132.382 77.72V87H130.242V75.56C130.242 75.0533 130.316 74.6 130.462 74.2C130.622 73.8 130.856 73.4667 131.162 73.2C131.469 72.92 131.836 72.7133 132.262 72.58C132.702 72.4333 133.189 72.36 133.722 72.36ZM135.562 77V78.68H128.362V77H135.562ZM138.542 75.32C138.076 75.32 137.716 75.2067 137.462 74.98C137.222 74.74 137.102 74.4067 137.102 73.98C137.102 73.5533 137.222 73.2267 137.462 73C137.716 72.7733 138.076 72.66 138.542 72.66C138.996 72.66 139.342 72.7733 139.582 73C139.836 73.2267 139.962 73.5533 139.962 73.98C139.962 74.4067 139.836 74.74 139.582 74.98C139.342 75.2067 138.996 75.32 138.542 75.32ZM139.602 77V87H137.462V77H139.602ZM147.269 76.8C148.069 76.8 148.749 76.92 149.309 77.16C149.882 77.3867 150.362 77.7133 150.749 78.14C151.136 78.5667 151.429 79.0533 151.629 79.6L149.609 80.4C149.436 79.7867 149.156 79.32 148.769 79C148.396 78.6667 147.902 78.5 147.289 78.5C146.689 78.5 146.176 78.64 145.749 78.92C145.322 79.1867 144.996 79.58 144.769 80.1C144.556 80.62 144.449 81.26 144.449 82.02C144.449 82.7667 144.562 83.4 144.789 83.92C145.016 84.44 145.342 84.8333 145.769 85.1C146.196 85.3667 146.702 85.5 147.289 85.5C147.742 85.5 148.136 85.4267 148.469 85.28C148.802 85.12 149.076 84.9 149.289 84.62C149.516 84.3267 149.669 83.9733 149.749 83.56L151.689 84.22C151.502 84.82 151.209 85.3467 150.809 85.8C150.422 86.24 149.936 86.5867 149.349 86.84C148.762 87.08 148.089 87.2 147.329 87.2C146.342 87.2 145.469 86.9933 144.709 86.58C143.949 86.1667 143.356 85.5733 142.929 84.8C142.516 84.0133 142.309 83.08 142.309 82C142.309 80.92 142.516 79.9933 142.929 79.22C143.356 78.4333 143.942 77.8333 144.689 77.42C145.449 77.0067 146.309 76.8 147.269 76.8ZM158.58 87.2C157.58 87.2 156.7 86.9933 155.94 86.58C155.18 86.1667 154.586 85.5733 154.16 84.8C153.746 84.0133 153.54 83.08 153.54 82C153.54 80.92 153.746 79.9933 154.16 79.22C154.586 78.4333 155.173 77.8333 155.92 77.42C156.666 77.0067 157.513 76.8 158.46 76.8C159.433 76.8 160.26 77 160.94 77.4C161.62 77.8 162.14 78.3467 162.5 79.04C162.86 79.7333 163.04 80.52 163.04 81.4C163.04 81.64 163.033 81.8667 163.02 82.08C163.006 82.2933 162.986 82.48 162.96 82.64H154.92V81H162.02L160.96 81.32C160.96 80.4133 160.733 79.72 160.28 79.24C159.826 78.7467 159.206 78.5 158.42 78.5C157.846 78.5 157.346 78.6333 156.92 78.9C156.493 79.1667 156.166 79.5667 155.94 80.1C155.713 80.62 155.6 81.26 155.6 82.02C155.6 82.7667 155.72 83.4 155.96 83.92C156.2 84.44 156.54 84.8333 156.98 85.1C157.42 85.3667 157.94 85.5 158.54 85.5C159.206 85.5 159.746 85.3733 160.16 85.12C160.573 84.8667 160.9 84.5133 161.14 84.06L162.84 84.86C162.6 85.34 162.273 85.76 161.86 86.12C161.46 86.4667 160.98 86.7333 160.42 86.92C159.86 87.1067 159.246 87.2 158.58 87.2ZM115.7 121.96C114.953 121.96 114.267 121.827 113.64 121.56C113.027 121.293 112.527 120.86 112.14 120.26C111.767 119.66 111.58 118.86 111.58 117.86C111.58 117.7 111.593 117.527 111.62 117.34C111.647 117.153 111.693 116.973 111.76 116.8L113.34 116.68C113.3 116.867 113.267 117.04 113.24 117.2C113.213 117.347 113.2 117.487 113.2 117.62C113.2 118.313 113.313 118.833 113.54 119.18C113.78 119.527 114.087 119.76 114.46 119.88C114.847 120 115.267 120.06 115.72 120.06C116.24 120.06 116.7 119.993 117.1 119.86C117.513 119.727 117.847 119.553 118.1 119.34L118.62 121.08C118.3 121.36 117.853 121.573 117.28 121.72C116.72 121.88 116.193 121.96 115.7 121.96ZM112.44 104.6C113.72 104.6 114.827 104.873 115.76 105.42C116.693 105.967 117.413 106.747 117.92 107.76C118.427 108.773 118.68 109.987 118.68 111.4C118.68 112.813 118.427 114.027 117.92 115.04C117.413 116.053 116.693 116.833 115.76 117.38C114.827 117.927 113.72 118.2 112.44 118.2C111.173 118.2 110.073 117.927 109.14 117.38C108.207 116.833 107.487 116.053 106.98 115.04C106.473 114.027 106.22 112.813 106.22 111.4C106.22 109.987 106.473 108.773 106.98 107.76C107.487 106.747 108.207 105.967 109.14 105.42C110.073 104.873 111.173 104.6 112.44 104.6ZM112.44 106.46C111.613 106.46 110.9 106.653 110.3 107.04C109.713 107.427 109.26 107.987 108.94 108.72C108.62 109.453 108.46 110.347 108.46 111.4C108.46 112.44 108.62 113.333 108.94 114.08C109.26 114.813 109.713 115.373 110.3 115.76C110.9 116.147 111.613 116.34 112.44 116.34C113.28 116.34 113.993 116.147 114.58 115.76C115.18 115.373 115.64 114.813 115.96 114.08C116.28 113.333 116.44 112.44 116.44 111.4C116.44 110.347 116.28 109.453 115.96 108.72C115.64 107.987 115.18 107.427 114.58 107.04C113.993 106.653 113.28 106.46 112.44 106.46ZM125.122 118.2C124.469 118.2 123.862 118.08 123.302 117.84C122.756 117.6 122.316 117.213 121.982 116.68C121.649 116.147 121.482 115.453 121.482 114.6V108H123.622V114.06C123.622 114.967 123.816 115.593 124.202 115.94C124.589 116.273 125.129 116.44 125.822 116.44C126.156 116.44 126.476 116.387 126.782 116.28C127.102 116.16 127.389 115.98 127.642 115.74C127.896 115.487 128.089 115.167 128.222 114.78C128.369 114.393 128.442 113.94 128.442 113.42V108H130.582V118H128.702L128.602 116.38C128.256 117.007 127.789 117.467 127.202 117.76C126.616 118.053 125.922 118.2 125.122 118.2ZM138.266 107.8C139.239 107.8 140.099 108.007 140.846 108.42C141.592 108.833 142.172 109.433 142.586 110.22C143.012 110.993 143.226 111.92 143.226 113C143.226 114.08 143.012 115.013 142.586 115.8C142.172 116.573 141.592 117.167 140.846 117.58C140.099 117.993 139.239 118.2 138.266 118.2C137.292 118.2 136.432 117.993 135.686 117.58C134.939 117.167 134.352 116.573 133.926 115.8C133.499 115.013 133.286 114.08 133.286 113C133.286 111.92 133.499 110.993 133.926 110.22C134.352 109.433 134.939 108.833 135.686 108.42C136.432 108.007 137.292 107.8 138.266 107.8ZM138.266 109.48C137.666 109.48 137.152 109.62 136.726 109.9C136.312 110.167 135.992 110.56 135.766 111.08C135.539 111.6 135.426 112.24 135.426 113C135.426 113.747 135.539 114.387 135.766 114.92C135.992 115.44 136.312 115.84 136.726 116.12C137.152 116.387 137.666 116.52 138.266 116.52C138.866 116.52 139.372 116.387 139.786 116.12C140.199 115.84 140.519 115.44 140.746 114.92C140.972 114.387 141.086 113.747 141.086 113C141.086 112.24 140.972 111.6 140.746 111.08C140.519 110.56 140.199 110.167 139.786 109.9C139.372 109.62 138.866 109.48 138.266 109.48ZM148.701 105.06V115C148.701 115.493 148.828 115.853 149.081 116.08C149.348 116.307 149.701 116.42 150.141 116.42C150.501 116.42 150.814 116.367 151.081 116.26C151.348 116.14 151.594 115.98 151.821 115.78L152.301 117.34C151.994 117.607 151.614 117.82 151.161 117.98C150.721 118.127 150.228 118.2 149.681 118.2C149.108 118.2 148.581 118.107 148.101 117.92C147.621 117.733 147.248 117.433 146.981 117.02C146.714 116.593 146.574 116.04 146.561 115.36V105.66L148.701 105.06ZM152.141 108V109.68H144.641V108H152.141ZM158.658 118.2C157.658 118.2 156.778 117.993 156.018 117.58C155.258 117.167 154.664 116.573 154.238 115.8C153.824 115.013 153.618 114.08 153.618 113C153.618 111.92 153.824 110.993 154.238 110.22C154.664 109.433 155.251 108.833 155.998 108.42C156.744 108.007 157.591 107.8 158.538 107.8C159.511 107.8 160.338 108 161.018 108.4C161.698 108.8 162.218 109.347 162.578 110.04C162.938 110.733 163.118 111.52 163.118 112.4C163.118 112.64 163.111 112.867 163.098 113.08C163.084 113.293 163.064 113.48 163.038 113.64H154.998V112H162.098L161.038 112.32C161.038 111.413 160.811 110.72 160.358 110.24C159.904 109.747 159.284 109.5 158.498 109.5C157.924 109.5 157.424 109.633 156.998 109.9C156.571 110.167 156.244 110.567 156.018 111.1C155.791 111.62 155.678 112.26 155.678 113.02C155.678 113.767 155.798 114.4 156.038 114.92C156.278 115.44 156.618 115.833 157.058 116.1C157.498 116.367 158.018 116.5 158.618 116.5C159.284 116.5 159.824 116.373 160.238 116.12C160.651 115.867 160.978 115.513 161.218 115.06L162.918 115.86C162.678 116.34 162.351 116.76 161.938 117.12C161.538 117.467 161.058 117.733 160.498 117.92C159.938 118.107 159.324 118.2 158.658 118.2ZM169.62 118.2C168.62 118.2 167.707 118.007 166.88 117.62C166.053 117.233 165.4 116.687 164.92 115.98L166.4 114.7C166.693 115.247 167.113 115.687 167.66 116.02C168.22 116.34 168.887 116.5 169.66 116.5C170.273 116.5 170.76 116.393 171.12 116.18C171.48 115.967 171.66 115.667 171.66 115.28C171.66 115.027 171.573 114.807 171.4 114.62C171.24 114.42 170.927 114.267 170.46 114.16L168.36 113.72C167.293 113.507 166.533 113.167 166.08 112.7C165.627 112.22 165.4 111.613 165.4 110.88C165.4 110.333 165.56 109.827 165.88 109.36C166.2 108.893 166.667 108.52 167.28 108.24C167.907 107.947 168.653 107.8 169.52 107.8C170.52 107.8 171.373 107.98 172.08 108.34C172.787 108.687 173.327 109.187 173.7 109.84L172.22 111.08C171.967 110.547 171.593 110.153 171.1 109.9C170.607 109.633 170.093 109.5 169.56 109.5C169.133 109.5 168.767 109.553 168.46 109.66C168.153 109.767 167.92 109.913 167.76 110.1C167.6 110.287 167.52 110.507 167.52 110.76C167.52 111.027 167.62 111.26 167.82 111.46C168.02 111.66 168.38 111.813 168.9 111.92L171.18 112.4C172.14 112.587 172.813 112.907 173.2 113.36C173.6 113.8 173.8 114.34 173.8 114.98C173.8 115.62 173.633 116.187 173.3 116.68C172.967 117.16 172.487 117.533 171.86 117.8C171.233 118.067 170.487 118.2 169.62 118.2ZM106.4 149V147.44C107.667 146.533 108.727 145.733 109.58 145.04C110.447 144.347 111.14 143.707 111.66 143.12C112.18 142.533 112.553 141.98 112.78 141.46C113.02 140.927 113.14 140.387 113.14 139.84C113.14 139.133 112.92 138.56 112.48 138.12C112.04 137.68 111.427 137.46 110.64 137.46C109.813 137.46 109.153 137.74 108.66 138.3C108.18 138.847 107.907 139.6 107.84 140.56L105.98 139.7C106.073 138.86 106.32 138.133 106.72 137.52C107.12 136.907 107.66 136.433 108.34 136.1C109.033 135.767 109.833 135.6 110.74 135.6C111.487 135.6 112.14 135.707 112.7 135.92C113.273 136.133 113.753 136.433 114.14 136.82C114.527 137.193 114.82 137.633 115.02 138.14C115.233 138.647 115.34 139.187 115.34 139.76C115.34 140.6 115.133 141.413 114.72 142.2C114.307 142.973 113.653 143.767 112.76 144.58C111.867 145.393 110.693 146.267 109.24 147.2V147.24C109.4 147.213 109.62 147.2 109.9 147.2C110.18 147.187 110.46 147.18 110.74 147.18C111.02 147.167 111.247 147.16 111.42 147.16H115.58V149H106.4ZM119.478 146.3C119.932 146.3 120.292 146.433 120.558 146.7C120.838 146.953 120.978 147.3 120.978 147.74C120.978 148.18 120.838 148.533 120.558 148.8C120.292 149.067 119.932 149.2 119.478 149.2C119.012 149.2 118.638 149.067 118.358 148.8C118.092 148.533 117.958 148.18 117.958 147.74C117.958 147.3 118.092 146.953 118.358 146.7C118.638 146.433 119.012 146.3 119.478 146.3ZM128.077 149.2C126.49 149.2 125.244 148.627 124.337 147.48C123.444 146.32 122.997 144.627 122.997 142.4C122.997 140.173 123.444 138.487 124.337 137.34C125.244 136.18 126.49 135.6 128.077 135.6C129.677 135.6 130.924 136.18 131.817 137.34C132.724 138.487 133.177 140.173 133.177 142.4C133.177 144.627 132.724 146.32 131.817 147.48C130.924 148.627 129.677 149.2 128.077 149.2ZM128.077 147.38C128.717 147.38 129.25 147.2 129.677 146.84C130.117 146.467 130.444 145.913 130.657 145.18C130.884 144.433 130.997 143.507 130.997 142.4C130.997 141.293 130.884 140.373 130.657 139.64C130.444 138.893 130.117 138.34 129.677 137.98C129.25 137.607 128.717 137.42 128.077 137.42C127.437 137.42 126.897 137.607 126.457 137.98C126.03 138.34 125.71 138.893 125.497 139.64C125.284 140.373 125.177 141.293 125.177 142.4C125.177 143.507 125.284 144.433 125.497 145.18C125.71 145.913 126.03 146.467 126.457 146.84C126.897 147.2 127.437 147.38 128.077 147.38Z" fill="white"/>
<rect x="4.5" y="4.5" width="183" height="183" rx="3.5" stroke="white"/>
</svg>
